<?xml version="1.0" encoding="utf-8"?>
<!-- Generator: Adobe Illustrator 19.2.1, SVG Export Plug-In . SVG Version: 6.00 Build 0)  -->
<svg width="35" height="25.33" version="1.1" id="Layer_1" xmlns="http://www.w3.org/2000/svg" xmlns:xlink="http://www.w3.org/1999/xlink" x="0px" y="0px"
	 viewBox="0 -6.35 69.8 57.1" style="enable-background:new 0 0 69.8 57.1;" xml:space="preserve">
<style type="text/css">
	.st0{fill:#FFFFFF;}
	.st1{clip-path:url(#SVGID_2_);fill:url(#SVGID_3_);}
	.st2{filter:url(#Adobe_OpacityMaskFilter);}
	.st3{clip-path:url(#SVGID_5_);}
	.st4{clip-path:url(#SVGID_8_);fill:url(#SVGID_9_);}
	.st5{clip-path:url(#SVGID_5_);mask:url(#SVGID_6_);fill:url(#SVGID_10_);}
	.st6{filter:url(#Adobe_OpacityMaskFilter_1_);}
	.st7{clip-path:url(#SVGID_13_);}
	.st8{clip-path:url(#SVGID_15_);fill:url(#SVGID_16_);}
	.st9{clip-path:url(#SVGID_13_);mask:url(#SVGID_11_);fill:url(#SVGID_17_);}
	.st10{clip-path:url(#SVGID_20_);fill:url(#SVGID_21_);}
	.st11{filter:url(#Adobe_OpacityMaskFilter_2_);}
	.st12{clip-path:url(#SVGID_23_);}
	.st13{clip-path:url(#SVGID_26_);fill:url(#SVGID_27_);}
	.st14{clip-path:url(#SVGID_23_);mask:url(#SVGID_19_);fill:url(#SVGID_28_);}
	.st15{filter:url(#Adobe_OpacityMaskFilter_3_);}
	.st16{clip-path:url(#SVGID_31_);}
	.st17{clip-path:url(#SVGID_33_);fill:url(#SVGID_35_);}
	.st18{clip-path:url(#SVGID_31_);mask:url(#SVGID_24_);fill:url(#SVGID_36_);}
	.st19{filter:url(#Adobe_OpacityMaskFilter_4_);}
	.st20{clip-path:url(#SVGID_38_);}
	.st21{clip-path:url(#SVGID_40_);fill:url(#SVGID_41_);}
	.st22{clip-path:url(#SVGID_38_);mask:url(#SVGID_29_);fill:url(#SVGID_43_);}
	.st23{filter:url(#Adobe_OpacityMaskFilter_5_);}
	.st24{clip-path:url(#SVGID_45_);}
	.st25{clip-path:url(#SVGID_48_);fill:url(#SVGID_49_);}
	.st26{clip-path:url(#SVGID_45_);mask:url(#SVGID_34_);fill:url(#SVGID_50_);}
	.st27{clip-path:url(#SVGID_53_);fill:url(#SVGID_54_);}
	.st28{filter:url(#Adobe_OpacityMaskFilter_6_);}
	.st29{clip-path:url(#SVGID_56_);}
	.st30{clip-path:url(#SVGID_59_);fill:url(#SVGID_60_);}
	.st31{clip-path:url(#SVGID_56_);mask:url(#SVGID_42_);fill:url(#SVGID_61_);}
	.st32{filter:url(#Adobe_OpacityMaskFilter_7_);}
	.st33{clip-path:url(#SVGID_63_);}
	.st34{clip-path:url(#SVGID_65_);fill:url(#SVGID_66_);}
	.st35{clip-path:url(#SVGID_63_);mask:url(#SVGID_47_);fill:url(#SVGID_67_);}
	.st36{filter:url(#Adobe_OpacityMaskFilter_8_);}
	.st37{clip-path:url(#SVGID_69_);}
	.st38{clip-path:url(#SVGID_71_);fill:url(#SVGID_72_);}
	.st39{clip-path:url(#SVGID_69_);mask:url(#SVGID_52_);fill:url(#SVGID_73_);}
	.st40{filter:url(#Adobe_OpacityMaskFilter_9_);}
	.st41{clip-path:url(#SVGID_75_);}
	.st42{clip-path:url(#SVGID_77_);fill:url(#SVGID_78_);}
	.st43{clip-path:url(#SVGID_75_);mask:url(#SVGID_57_);fill:url(#SVGID_79_);}
</style>
<g>
	<path class="st0" d="M55.2,4.9l12.7,33.4c0.2,0.6,0.4,1.3,0.4,2c0,3.1-2.5,5.7-5.6,5.7H7.6C4.5,46,2,43.4,2,40.3
		c0-0.6,0.1-1.3,0.4-2L15,4.9C16.1,2,18.9,0,22.1,0h26.1C51.4,0,54.1,2,55.2,4.9"/>
	<path class="st0" d="M55.2,4.9l12.7,33.4c0.2,0.6,0.4,1.3,0.4,2c0,3.1-2.5,5.7-5.6,5.7H7.6C4.5,46,2,43.4,2,40.3
		c0-0.6,0.1-1.3,0.4-2L15,4.9C16.1,2,18.9,0,22.1,0h26.1C51.4,0,54.1,2,55.2,4.9"/>
	<g>
		<g>
			<defs>
				<path id="SVGID_1_" d="M44.9,3.1c-4.3,0-7.8,3.5-7.8,7.9c0,1,0.2,2,0.5,2.8l10.6,27.9c0.3,0.8,1,1.3,1.9,1.3h13.4
					c1.1,0,2-0.9,2-2c0-0.3-0.1-0.5-0.1-0.7L52.3,5.8c-0.6-1.6-2.1-2.7-3.9-2.7L44.9,3.1z"/>
			</defs>
			<clipPath id="SVGID_2_">
				<use xlink:href="#SVGID_1_"  style="overflow:visible;"/>
			</clipPath>
			
				<linearGradient id="SVGID_3_" gradientUnits="userSpaceOnUse" x1="-254.9325" y1="-207.0396" x2="-254.7891" y2="-207.0396" gradientTransform="matrix(121.1288 -39.3571 39.3571 121.1288 39069.7539 15071.3018)">
				<stop  offset="0" style="stop-color:#991B24"/>
				<stop  offset="0.227" style="stop-color:#DE2027"/>
				<stop  offset="0.4724" style="stop-color:#DE2027"/>
				<stop  offset="0.773" style="stop-color:#DF2027"/>
				<stop  offset="1" style="stop-color:#991B24"/>
			</linearGradient>
			<polygon class="st1" points="25.4,6.9 62.8,-5.2 77.3,39.2 39.8,51.4 			"/>
		</g>
	</g>
	<g>
		<g>
			<defs>
				<path id="SVGID_4_" d="M46.7,3.1c-0.4,0-1.8,0-1.8,0c-4.3,0-7.8,3.5-7.8,7.9c0,1,0.2,2,0.5,2.8l10.6,27.9c0.3,0.8,1,1.3,1.9,1.3
					h13.4c1.1,0,2-0.9,2-2c0-0.3-0.1-0.5-0.1-0.7L52.3,5.8c-0.6-1.6-2.1-2.7-3.9-2.7C48.5,3.1,47.1,3.1,46.7,3.1"/>
			</defs>
			<clipPath id="SVGID_5_">
				<use xlink:href="#SVGID_4_"  style="overflow:visible;"/>
			</clipPath>
			<defs>
				<filter id="Adobe_OpacityMaskFilter" filterUnits="userSpaceOnUse" x="23.7" y="-6.4" width="55.2" height="59">
					<feColorMatrix  type="matrix" values="1 0 0 0 0  0 1 0 0 0  0 0 1 0 0  0 0 0 1 0"/>
				</filter>
			</defs>
			<mask maskUnits="userSpaceOnUse" x="23.7" y="-6.4" width="55.2" height="59" id="SVGID_6_">
				<g class="st2">
					<g>
						<defs>
							<path id="SVGID_7_" d="M46.7,3.1c-0.4,0-1.8,0-1.8,0c-4.3,0-7.8,3.5-7.8,7.9c0,1,0.2,2,0.5,2.8l10.6,27.9
								c0.3,0.8,1,1.3,1.9,1.3h13.4c1.1,0,2-0.9,2-2c0-0.3-0.1-0.5-0.1-0.7L52.3,5.8c-0.6-1.6-2.1-2.7-3.9-2.7
								C48.5,3.1,47.1,3.1,46.7,3.1"/>
						</defs>
						<clipPath id="SVGID_8_" class="st3">
							<use xlink:href="#SVGID_7_"  style="overflow:visible;"/>
						</clipPath>
						
							<linearGradient id="SVGID_9_" gradientUnits="userSpaceOnUse" x1="-255.1083" y1="-207.0472" x2="-254.9647" y2="-207.0472" gradientTransform="matrix(108.8496 -41.7835 41.7835 108.8496 36461.918 11904.2373)">
							<stop  offset="0" style="stop-color:#FFFFFF"/>
							<stop  offset="9.819999e-02" style="stop-color:#000000"/>
							<stop  offset="0.908" style="stop-color:#000000"/>
							<stop  offset="1" style="stop-color:#FFFFFF"/>
						</linearGradient>
						<polygon class="st4" points="23.7,8.3 61.9,-6.4 78.9,37.9 40.8,52.6 						"/>
					</g>
				</g>
			</mask>
			
				<linearGradient id="SVGID_10_" gradientUnits="userSpaceOnUse" x1="-255.1083" y1="-207.0482" x2="-254.9647" y2="-207.0482" gradientTransform="matrix(108.8496 -41.7835 41.7835 108.8496 36461.918 11904.3623)">
				<stop  offset="0" style="stop-color:#480000"/>
				<stop  offset="9.819999e-02" style="stop-color:#991B24"/>
				<stop  offset="0.908" style="stop-color:#991B24"/>
				<stop  offset="1" style="stop-color:#550000"/>
			</linearGradient>
			<polygon class="st5" points="23.7,8.3 61.9,-6.4 78.9,37.9 40.8,52.6 			"/>
		</g>
	</g>
	<g>
		<g>
			<defs>
				<path id="SVGID_12_" d="M46.7,3.1c-0.4,0-1.8,0-1.8,0c-4.3,0-7.8,3.5-7.8,7.9c0,1,0.2,2,0.5,2.8l10.6,27.9
					c0.3,0.8,1,1.3,1.9,1.3h13.4c1.1,0,2-0.9,2-2c0-0.3-0.1-0.5-0.1-0.7L52.3,5.8c-0.6-1.6-2.1-2.7-3.9-2.7
					C48.5,3.1,47.1,3.1,46.7,3.1"/>
			</defs>
			<clipPath id="SVGID_13_">
				<use xlink:href="#SVGID_12_"  style="overflow:visible;"/>
			</clipPath>
			<defs>
				<filter id="Adobe_OpacityMaskFilter_1_" filterUnits="userSpaceOnUse" x="35.7" y="2.1" width="31.2" height="41.9">
					<feColorMatrix  type="matrix" values="1 0 0 0 0  0 1 0 0 0  0 0 1 0 0  0 0 0 1 0"/>
				</filter>
			</defs>
			<mask maskUnits="userSpaceOnUse" x="35.7" y="2.1" width="31.2" height="41.9" id="SVGID_11_">
				<g class="st6">
					<g>
						<defs>
							<path id="SVGID_14_" d="M46.7,3.1c-0.4,0-1.8,0-1.8,0c-4.3,0-7.8,3.5-7.8,7.9c0,1,0.2,2,0.5,2.8l10.6,27.9
								c0.3,0.8,1,1.3,1.9,1.3h13.4c1.1,0,2-0.9,2-2c0-0.3-0.1-0.5-0.1-0.7L52.3,5.8c-0.6-1.6-2.1-2.7-3.9-2.7
								C48.5,3.1,47.1,3.1,46.7,3.1"/>
						</defs>
						<clipPath id="SVGID_15_" class="st7">
							<use xlink:href="#SVGID_14_"  style="overflow:visible;"/>
						</clipPath>
						
							<linearGradient id="SVGID_16_" gradientUnits="userSpaceOnUse" x1="-253.9979" y1="-208.5594" x2="-253.8546" y2="-208.5594" gradientTransform="matrix(-9.8564 -282.2498 282.2498 -9.8564 56414.3672 -73702.8359)">
							<stop  offset="0" style="stop-color:#8F8F8F"/>
							<stop  offset="6.140000e-02" style="stop-color:#000000"/>
							<stop  offset="0.9325" style="stop-color:#000000"/>
							<stop  offset="1" style="stop-color:#262626"/>
						</linearGradient>
						<polygon class="st8" points="37.1,44 35.7,3.2 65.5,2.1 66.9,43 						"/>
					</g>
				</g>
			</mask>
			
				<linearGradient id="SVGID_17_" gradientUnits="userSpaceOnUse" x1="-253.9979" y1="-208.5594" x2="-253.8546" y2="-208.5594" gradientTransform="matrix(-9.8564 -282.2498 282.2498 -9.8564 56414.3672 -73702.8359)">
				<stop  offset="0" style="stop-color:#480000"/>
				<stop  offset="6.140000e-02" style="stop-color:#991B24"/>
				<stop  offset="0.9325" style="stop-color:#991B24"/>
				<stop  offset="1" style="stop-color:#550000"/>
			</linearGradient>
			<polygon class="st9" points="37.1,44 35.7,3.2 65.5,2.1 66.9,43 			"/>
		</g>
	</g>
	<g>
		<g>
			<defs>
				<path id="SVGID_18_" d="M21.7,3.1c-1.8,0-3.2,1.1-3.8,2.7l-1.6,4.4c-0.2,0.5-0.3,1-0.3,1.5c0,0.5,0.1,1,0.3,1.5L27,41.7
					c0.3,0.8,1,1.3,1.9,1.3h5c4.3,0,7.8-3.5,7.8-7.9c0-1-0.2-1.9-0.5-2.8L30.7,4.4c-0.3-0.8-1-1.3-1.9-1.3L21.7,3.1L21.7,3.1z"/>
			</defs>
			<clipPath id="SVGID_20_">
				<use xlink:href="#SVGID_18_"  style="overflow:visible;"/>
			</clipPath>
			
				<linearGradient id="SVGID_21_" gradientUnits="userSpaceOnUse" x1="-254.0736" y1="-206.577" x2="-253.93" y2="-206.577" gradientTransform="matrix(111.1187 -40.4439 40.4439 111.1187 36607.9453 12704.8447)">
				<stop  offset="0" style="stop-color:#991B24"/>
				<stop  offset="0.1779" style="stop-color:#DE2027"/>
				<stop  offset="0.4724" style="stop-color:#DE2027"/>
				<stop  offset="0.8282" style="stop-color:#DF2027"/>
				<stop  offset="1" style="stop-color:#991B24"/>
			</linearGradient>
			<polygon class="st10" points="3.1,7.8 38.7,-5.2 54.6,38.4 18.9,51.4 			"/>
		</g>
	</g>
	<g>
		<g>
			<defs>
				<path id="SVGID_22_" d="M21.7,3.1c-1.8,0-3.2,1.1-3.8,2.7l-1.6,4.4c-0.2,0.5-0.3,1-0.3,1.5c0,0.5,0.1,1,0.3,1.5L27,41.7
					c0.3,0.8,1,1.3,1.9,1.3h5c4.3,0,7.8-3.5,7.8-7.9c0-1-0.2-1.9-0.5-2.8L30.7,4.4c-0.3-0.8-1-1.3-1.9-1.3L21.7,3.1L21.7,3.1z"/>
			</defs>
			<clipPath id="SVGID_23_">
				<use xlink:href="#SVGID_22_"  style="overflow:visible;"/>
			</clipPath>
			<defs>
				<filter id="Adobe_OpacityMaskFilter_2_" filterUnits="userSpaceOnUse" x="3.1" y="-5.2" width="51.5" height="56.5">
					<feColorMatrix  type="matrix" values="1 0 0 0 0  0 1 0 0 0  0 0 1 0 0  0 0 0 1 0"/>
				</filter>
			</defs>
			<mask maskUnits="userSpaceOnUse" x="3.1" y="-5.2" width="51.5" height="56.5" id="SVGID_19_">
				<g class="st11">
					<g>
						<defs>
							<path id="SVGID_25_" d="M21.7,3.1c-1.8,0-3.2,1.1-3.8,2.7l-1.6,4.4c-0.2,0.5-0.3,1-0.3,1.5c0,0.5,0.1,1,0.3,1.5L27,41.7
								c0.3,0.8,1,1.3,1.9,1.3h5c4.3,0,7.8-3.5,7.8-7.9c0-1-0.2-1.9-0.5-2.8L30.7,4.4c-0.3-0.8-1-1.3-1.9-1.3L21.7,3.1L21.7,3.1z"/>
						</defs>
						<clipPath id="SVGID_26_" class="st12">
							<use xlink:href="#SVGID_25_"  style="overflow:visible;"/>
						</clipPath>
						
							<linearGradient id="SVGID_27_" gradientUnits="userSpaceOnUse" x1="-254.0736" y1="-206.578" x2="-253.93" y2="-206.578" gradientTransform="matrix(111.1187 -40.4439 40.4439 111.1187 36607.9453 12704.9697)">
							<stop  offset="0" style="stop-color:#FFFFFF"/>
							<stop  offset="9.819999e-02" style="stop-color:#000000"/>
							<stop  offset="0.908" style="stop-color:#000000"/>
							<stop  offset="1" style="stop-color:#FFFFFF"/>
						</linearGradient>
						<polygon class="st13" points="3.1,7.8 38.7,-5.2 54.6,38.4 18.9,51.4 						"/>
					</g>
				</g>
			</mask>
			
				<linearGradient id="SVGID_28_" gradientUnits="userSpaceOnUse" x1="-254.0736" y1="-206.577" x2="-253.93" y2="-206.577" gradientTransform="matrix(111.1187 -40.4439 40.4439 111.1187 36607.9453 12704.8447)">
				<stop  offset="0" style="stop-color:#480000"/>
				<stop  offset="9.819999e-02" style="stop-color:#991B24"/>
				<stop  offset="0.908" style="stop-color:#991B24"/>
				<stop  offset="1" style="stop-color:#550000"/>
			</linearGradient>
			<polygon class="st14" points="3.1,7.8 38.7,-5.2 54.6,38.4 18.9,51.4 			"/>
		</g>
	</g>
	<g>
		<g>
			<defs>
				<path id="SVGID_30_" d="M21.7,3.1c-1.8,0-3.2,1.1-3.8,2.7l-1.6,4.4c-0.2,0.5-0.3,1-0.3,1.5c0,0.5,0.1,1,0.3,1.5L27,41.7
					c0.3,0.8,1,1.3,1.9,1.3h5c4.3,0,7.8-3.5,7.8-7.9c0-1-0.2-1.9-0.5-2.8L30.7,4.4c-0.3-0.8-1-1.3-1.9-1.3L21.7,3.1L21.7,3.1z"/>
			</defs>
			<clipPath id="SVGID_31_">
				<use xlink:href="#SVGID_30_"  style="overflow:visible;"/>
			</clipPath>
			<defs>
				<filter id="Adobe_OpacityMaskFilter_3_" filterUnits="userSpaceOnUse" x="3.1" y="-5.2" width="51.5" height="56.5">
					<feColorMatrix  type="matrix" values="1 0 0 0 0  0 1 0 0 0  0 0 1 0 0  0 0 0 1 0"/>
				</filter>
			</defs>
			<mask maskUnits="userSpaceOnUse" x="3.1" y="-5.2" width="51.5" height="56.5" id="SVGID_24_">
				<g class="st15">
					<g>
						<defs>
							<path id="SVGID_32_" d="M21.7,3.1c-1.8,0-3.2,1.1-3.8,2.7l-1.6,4.4c-0.2,0.5-0.3,1-0.3,1.5c0,0.5,0.1,1,0.3,1.5L27,41.7
								c0.3,0.8,1,1.3,1.9,1.3h5c4.3,0,7.8-3.5,7.8-7.9c0-1-0.2-1.9-0.5-2.8L30.7,4.4c-0.3-0.8-1-1.3-1.9-1.3L21.7,3.1L21.7,3.1z"/>
						</defs>
						<clipPath id="SVGID_33_" class="st16">
							<use xlink:href="#SVGID_32_"  style="overflow:visible;"/>
						</clipPath>
						
							<linearGradient id="SVGID_35_" gradientUnits="userSpaceOnUse" x1="-253.9363" y1="-208.2662" x2="-253.7928" y2="-208.2662" gradientTransform="matrix(-101.0536 -277.6425 277.6425 -101.0536 32198.3281 -91506.8672)">
							<stop  offset="0" style="stop-color:#8F8F8F"/>
							<stop  offset="6.140000e-02" style="stop-color:#000000"/>
							<stop  offset="0.9325" style="stop-color:#000000"/>
							<stop  offset="1" style="stop-color:#262626"/>
						</linearGradient>
						<polygon class="st17" points="18.9,51.4 3.1,7.8 38.7,-5.2 54.6,38.4 						"/>
					</g>
				</g>
			</mask>
			
				<linearGradient id="SVGID_36_" gradientUnits="userSpaceOnUse" x1="-253.9363" y1="-208.2662" x2="-253.7928" y2="-208.2662" gradientTransform="matrix(-101.0536 -277.6425 277.6425 -101.0536 32198.3281 -91506.8672)">
				<stop  offset="0" style="stop-color:#480000"/>
				<stop  offset="6.140000e-02" style="stop-color:#991B24"/>
				<stop  offset="0.9325" style="stop-color:#991B24"/>
				<stop  offset="1" style="stop-color:#550000"/>
			</linearGradient>
			<polygon class="st18" points="18.9,51.4 3.1,7.8 38.7,-5.2 54.6,38.4 			"/>
		</g>
	</g>
	<g>
		<g>
			<defs>
				<path id="SVGID_37_" d="M21.7,3.1c-1.8,0-3.2,1.1-3.8,2.7l-1.6,4.4c-0.2,0.5-0.3,1-0.3,1.5c0,0.5,0.1,1,0.3,1.5L27,41.7
					c0.3,0.8,1,1.3,1.9,1.3h5c4.3,0,7.8-3.5,7.8-7.9c0-1-0.2-1.9-0.5-2.8L30.7,4.4c-0.3-0.8-1-1.3-1.9-1.3L21.7,3.1L21.7,3.1z"/>
			</defs>
			<clipPath id="SVGID_38_">
				<use xlink:href="#SVGID_37_"  style="overflow:visible;"/>
			</clipPath>
			<defs>
				<filter id="Adobe_OpacityMaskFilter_4_" filterUnits="userSpaceOnUse" x="0.6" y="-6.8" width="56.4" height="59.7">
					<feColorMatrix  type="matrix" values="1 0 0 0 0  0 1 0 0 0  0 0 1 0 0  0 0 0 1 0"/>
				</filter>
			</defs>
			<mask maskUnits="userSpaceOnUse" x="0.6" y="-6.8" width="56.4" height="59.7" id="SVGID_29_">
				<g class="st19">
					<g>
						<defs>
							<path id="SVGID_39_" d="M21.7,3.1c-1.8,0-3.2,1.1-3.8,2.7l-1.6,4.4c-0.2,0.5-0.3,1-0.3,1.5c0,0.5,0.1,1,0.3,1.5L27,41.7
								c0.3,0.8,1,1.3,1.9,1.3h5c4.3,0,7.8-3.5,7.8-7.9c0-1-0.2-1.9-0.5-2.8L30.7,4.4c-0.3-0.8-1-1.3-1.9-1.3L21.7,3.1L21.7,3.1z"/>
						</defs>
						<clipPath id="SVGID_40_" class="st20">
							<use xlink:href="#SVGID_39_"  style="overflow:visible;"/>
						</clipPath>
						
							<linearGradient id="SVGID_41_" gradientUnits="userSpaceOnUse" x1="-253.6099" y1="-208.7049" x2="-253.4663" y2="-208.7049" gradientTransform="matrix(-219.9452 -102.5621 102.5621 -219.9452 -34330.3867 -71883.9375)">
							<stop  offset="0" style="stop-color:#8F8F8F"/>
							<stop  offset="0.1043" style="stop-color:#000000"/>
							<stop  offset="0.9325" style="stop-color:#000000"/>
							<stop  offset="1" style="stop-color:#262626"/>
						</linearGradient>
						<polygon class="st21" points="37.1,52.9 0.6,35.9 20.5,-6.8 57.1,10.3 						"/>
					</g>
				</g>
			</mask>
			
				<linearGradient id="SVGID_43_" gradientUnits="userSpaceOnUse" x1="-253.6099" y1="-208.7049" x2="-253.4663" y2="-208.7049" gradientTransform="matrix(-219.9452 -102.5621 102.5621 -219.9452 -34330.3867 -71883.9375)">
				<stop  offset="0" style="stop-color:#480000"/>
				<stop  offset="0.1043" style="stop-color:#991B24"/>
				<stop  offset="0.9325" style="stop-color:#991B24"/>
				<stop  offset="1" style="stop-color:#550000"/>
			</linearGradient>
			<polygon class="st22" points="37.1,52.9 0.6,35.9 20.5,-6.8 57.1,10.3 			"/>
		</g>
	</g>
	<g>
		<g>
			<defs>
				<path id="SVGID_44_" d="M21.7,3.1c-1.8,0-3.2,1.1-3.8,2.7l-1.6,4.4c-0.2,0.5-0.3,1-0.3,1.5c0,0.5,0.1,1,0.3,1.5L27,41.7
					c0.3,0.8,1,1.3,1.9,1.3h5c4.3,0,7.8-3.5,7.8-7.9c0-1-0.2-1.9-0.5-2.8L30.7,4.4c-0.3-0.8-1-1.3-1.9-1.3L21.7,3.1L21.7,3.1z"/>
			</defs>
			<clipPath id="SVGID_45_">
				<use xlink:href="#SVGID_44_"  style="overflow:visible;"/>
			</clipPath>
			<defs>
				<filter id="Adobe_OpacityMaskFilter_5_" filterUnits="userSpaceOnUse" x="4.2" y="-4.5" width="49.3" height="55.1">
					<feColorMatrix  type="matrix" values="1 0 0 0 0  0 1 0 0 0  0 0 1 0 0  0 0 0 1 0"/>
				</filter>
			</defs>
			<mask maskUnits="userSpaceOnUse" x="4.2" y="-4.5" width="49.3" height="55.1" id="SVGID_34_">
				<g class="st23">
					<g>
						<defs>
							<path id="SVGID_46_" d="M21.7,3.1c-1.8,0-3.2,1.1-3.8,2.7l-1.6,4.4c-0.2,0.5-0.3,1-0.3,1.5c0,0.5,0.1,1,0.3,1.5L27,41.7
								c0.3,0.8,1,1.3,1.9,1.3h5c4.3,0,7.8-3.5,7.8-7.9c0-1-0.2-1.9-0.5-2.8L30.7,4.4c-0.3-0.8-1-1.3-1.9-1.3L21.7,3.1L21.7,3.1z"/>
						</defs>
						<clipPath id="SVGID_48_" class="st24">
							<use xlink:href="#SVGID_46_"  style="overflow:visible;"/>
						</clipPath>
						
							<linearGradient id="SVGID_49_" gradientUnits="userSpaceOnUse" x1="-253.5277" y1="-208.7826" x2="-253.3843" y2="-208.7826" gradientTransform="matrix(-214.9537 -69.8426 69.8426 -214.9537 -39870.4766 -62557.5)">
							<stop  offset="0" style="stop-color:#000000"/>
							<stop  offset="0.9325" style="stop-color:#000000"/>
							<stop  offset="1" style="stop-color:#424242"/>
						</linearGradient>
						<polygon class="st25" points="39.3,50.6 4.2,39.2 18.4,-4.5 53.5,6.9 						"/>
					</g>
				</g>
			</mask>
			
				<linearGradient id="SVGID_50_" gradientUnits="userSpaceOnUse" x1="-253.5277" y1="-208.7826" x2="-253.3843" y2="-208.7826" gradientTransform="matrix(-214.9537 -69.8426 69.8426 -214.9537 -39870.4766 -62557.5)">
				<stop  offset="0" style="stop-color:#991B24"/>
				<stop  offset="0.9325" style="stop-color:#991B24"/>
				<stop  offset="1" style="stop-color:#550000"/>
			</linearGradient>
			<polygon class="st26" points="39.3,50.6 4.2,39.2 18.4,-4.5 53.5,6.9 			"/>
		</g>
	</g>
	<g>
		<g>
			<defs>
				<path id="SVGID_51_" d="M12,21.2L4.8,40.3c-0.1,0.2-0.1,0.5-0.1,0.7c0,1.1,0.9,2,2,2h6c4.3,0,7.8-3.5,7.8-7.9
					c0-1-0.2-1.9-0.5-2.8l-4.2-11.1c-0.3-0.8-1-1.3-1.9-1.3C13.1,19.9,12.3,20.4,12,21.2"/>
			</defs>
			<clipPath id="SVGID_53_">
				<use xlink:href="#SVGID_51_"  style="overflow:visible;"/>
			</clipPath>
			
				<linearGradient id="SVGID_54_" gradientUnits="userSpaceOnUse" x1="-252.69" y1="-206.7861" x2="-252.5464" y2="-206.7861" gradientTransform="matrix(110.6211 0 0 110.6211 27957.5898 22906.373)">
				<stop  offset="0" style="stop-color:#991B24"/>
				<stop  offset="0.227" style="stop-color:#DE2027"/>
				<stop  offset="0.4724" style="stop-color:#DE2027"/>
				<stop  offset="0.773" style="stop-color:#DF2027"/>
				<stop  offset="1" style="stop-color:#991B24"/>
			</linearGradient>
			<rect x="4.7" y="19.9" class="st27" width="15.9" height="23.2"/>
		</g>
	</g>
	<g>
		<g>
			<defs>
				<path id="SVGID_55_" d="M12,21.2L4.8,40.3c-0.1,0.2-0.1,0.5-0.1,0.7c0,1.1,0.9,2,2,2h6c4.3,0,7.8-3.5,7.8-7.9
					c0-1-0.2-1.9-0.5-2.8l-4.2-11.1c-0.3-0.8-1-1.3-1.9-1.3C13.1,19.9,12.3,20.4,12,21.2"/>
			</defs>
			<clipPath id="SVGID_56_">
				<use xlink:href="#SVGID_55_"  style="overflow:visible;"/>
			</clipPath>
			<defs>
				<filter id="Adobe_OpacityMaskFilter_6_" filterUnits="userSpaceOnUse" x="4.7" y="19.9" width="15.9" height="23.2">
					<feColorMatrix  type="matrix" values="1 0 0 0 0  0 1 0 0 0  0 0 1 0 0  0 0 0 1 0"/>
				</filter>
			</defs>
			<mask maskUnits="userSpaceOnUse" x="4.7" y="19.9" width="15.9" height="23.2" id="SVGID_42_">
				<g class="st28">
					<g>
						<defs>
							<path id="SVGID_58_" d="M12,21.2L4.8,40.3c-0.1,0.2-0.1,0.5-0.1,0.7c0,1.1,0.9,2,2,2h6c4.3,0,7.8-3.5,7.8-7.9
								c0-1-0.2-1.9-0.5-2.8l-4.2-11.1c-0.3-0.8-1-1.3-1.9-1.3C13.1,19.9,12.3,20.4,12,21.2"/>
						</defs>
						<clipPath id="SVGID_59_" class="st29">
							<use xlink:href="#SVGID_58_"  style="overflow:visible;"/>
						</clipPath>
						
							<linearGradient id="SVGID_60_" gradientUnits="userSpaceOnUse" x1="-252.69" y1="-206.7861" x2="-252.5464" y2="-206.7861" gradientTransform="matrix(110.6211 0 0 110.6211 27957.5898 22906.373)">
							<stop  offset="0" style="stop-color:#FFFFFF"/>
							<stop  offset="9.819999e-02" style="stop-color:#000000"/>
							<stop  offset="0.908" style="stop-color:#000000"/>
							<stop  offset="1" style="stop-color:#FFFFFF"/>
						</linearGradient>
						<rect x="4.7" y="19.9" class="st30" width="15.9" height="23.2"/>
					</g>
				</g>
			</mask>
			
				<linearGradient id="SVGID_61_" gradientUnits="userSpaceOnUse" x1="-252.69" y1="-206.7861" x2="-252.5464" y2="-206.7861" gradientTransform="matrix(110.6211 0 0 110.6211 27957.5898 22906.373)">
				<stop  offset="0" style="stop-color:#480000"/>
				<stop  offset="9.819999e-02" style="stop-color:#991B24"/>
				<stop  offset="0.908" style="stop-color:#991B24"/>
				<stop  offset="1" style="stop-color:#550000"/>
			</linearGradient>
			<rect x="4.7" y="19.9" class="st31" width="15.9" height="23.2"/>
		</g>
	</g>
	<g>
		<g>
			<defs>
				<path id="SVGID_62_" d="M12,21.2L4.8,40.3c-0.1,0.2-0.1,0.5-0.1,0.7c0,1.1,0.9,2,2,2h6c4.3,0,7.8-3.5,7.8-7.9
					c0-1-0.2-1.9-0.5-2.8l-4.2-11.1c-0.3-0.8-1-1.3-1.9-1.3C13.1,19.9,12.3,20.4,12,21.2"/>
			</defs>
			<clipPath id="SVGID_63_">
				<use xlink:href="#SVGID_62_"  style="overflow:visible;"/>
			</clipPath>
			<defs>
				<filter id="Adobe_OpacityMaskFilter_7_" filterUnits="userSpaceOnUse" x="3.9" y="19.3" width="17.5" height="24.3">
					<feColorMatrix  type="matrix" values="1 0 0 0 0  0 1 0 0 0  0 0 1 0 0  0 0 0 1 0"/>
				</filter>
			</defs>
			<mask maskUnits="userSpaceOnUse" x="3.9" y="19.3" width="17.5" height="24.3" id="SVGID_47_">
				<g class="st32">
					<g>
						<defs>
							<path id="SVGID_64_" d="M12,21.2L4.8,40.3c-0.1,0.2-0.1,0.5-0.1,0.7c0,1.1,0.9,2,2,2h6c4.3,0,7.8-3.5,7.8-7.9
								c0-1-0.2-1.9-0.5-2.8l-4.2-11.1c-0.3-0.8-1-1.3-1.9-1.3C13.1,19.9,12.3,20.4,12,21.2"/>
						</defs>
						<clipPath id="SVGID_65_" class="st33">
							<use xlink:href="#SVGID_64_"  style="overflow:visible;"/>
						</clipPath>
						
							<linearGradient id="SVGID_66_" gradientUnits="userSpaceOnUse" x1="-254.2112" y1="-207.5376" x2="-254.0674" y2="-207.5376" gradientTransform="matrix(-5.6171 -160.8521 160.8521 -5.6171 31967.9473 -42013.0117)">
							<stop  offset="0" style="stop-color:#8F8F8F"/>
							<stop  offset="6.140000e-02" style="stop-color:#000000"/>
							<stop  offset="0.8712" style="stop-color:#000000"/>
							<stop  offset="1" style="stop-color:#6E6E6E"/>
						</linearGradient>
						<polygon class="st34" points="4.7,43.6 3.9,19.9 20.5,19.3 21.4,43 						"/>
					</g>
				</g>
			</mask>
			
				<linearGradient id="SVGID_67_" gradientUnits="userSpaceOnUse" x1="-254.2151" y1="-207.5326" x2="-254.0713" y2="-207.5326" gradientTransform="matrix(-5.6171 -160.8522 160.8522 -5.6171 31967.1484 -42013.6641)">
				<stop  offset="0" style="stop-color:#480000"/>
				<stop  offset="6.140000e-02" style="stop-color:#991B24"/>
				<stop  offset="0.8712" style="stop-color:#991B24"/>
				<stop  offset="1" style="stop-color:#F05323"/>
			</linearGradient>
			<polygon class="st35" points="4.7,43.6 3.9,19.9 20.5,19.3 21.4,43 			"/>
		</g>
	</g>
	<g>
		<g>
			<defs>
				<path id="SVGID_68_" d="M12,21.2L4.8,40.3c-0.1,0.2-0.1,0.5-0.1,0.7c0,1.1,0.9,2,2,2h6c4.3,0,7.8-3.5,7.8-7.9
					c0-1-0.2-1.9-0.5-2.8l-4.2-11.1c-0.3-0.8-1-1.3-1.9-1.3C13.1,19.9,12.3,20.4,12,21.2"/>
			</defs>
			<clipPath id="SVGID_69_">
				<use xlink:href="#SVGID_68_"  style="overflow:visible;"/>
			</clipPath>
			<defs>
				<filter id="Adobe_OpacityMaskFilter_8_" filterUnits="userSpaceOnUse" x="-3.6" y="14.2" width="32.5" height="34.6">
					<feColorMatrix  type="matrix" values="1 0 0 0 0  0 1 0 0 0  0 0 1 0 0  0 0 0 1 0"/>
				</filter>
			</defs>
			<mask maskUnits="userSpaceOnUse" x="-3.6" y="14.2" width="32.5" height="34.6" id="SVGID_52_">
				<g class="st36">
					<g>
						<defs>
							<path id="SVGID_70_" d="M12,21.2L4.8,40.3c-0.1,0.2-0.1,0.5-0.1,0.7c0,1.1,0.9,2,2,2h6c4.3,0,7.8-3.5,7.8-7.9
								c0-1-0.2-1.9-0.5-2.8l-4.2-11.1c-0.3-0.8-1-1.3-1.9-1.3C13.1,19.9,12.3,20.4,12,21.2"/>
						</defs>
						<clipPath id="SVGID_71_" class="st37">
							<use xlink:href="#SVGID_70_"  style="overflow:visible;"/>
						</clipPath>
						
							<linearGradient id="SVGID_72_" gradientUnits="userSpaceOnUse" x1="-252.2778" y1="-207.0941" x2="-252.1342" y2="-207.0941" gradientTransform="matrix(89.3025 37.9067 -37.9067 89.3025 14687.2705 28086.7539)">
							<stop  offset="0" style="stop-color:#CFCFCF"/>
							<stop  offset="9.819999e-02" style="stop-color:#000000"/>
							<stop  offset="1" style="stop-color:#000000"/>
						</linearGradient>
						<polygon class="st38" points="7.1,14.2 28.9,23.4 18.1,48.8 -3.6,39.5 						"/>
					</g>
				</g>
			</mask>
			
				<linearGradient id="SVGID_73_" gradientUnits="userSpaceOnUse" x1="-252.2666" y1="-207.0893" x2="-252.1229" y2="-207.0893" gradientTransform="matrix(89.3025 37.9066 -37.9066 89.3025 14686.4766 28085.8848)">
				<stop  offset="0" style="stop-color:#480000"/>
				<stop  offset="9.819999e-02" style="stop-color:#991B24"/>
				<stop  offset="1" style="stop-color:#991B24"/>
			</linearGradient>
			<polygon class="st39" points="7.1,14.2 28.9,23.4 18.1,48.8 -3.6,39.5 			"/>
		</g>
	</g>
	<g>
		<g>
			<defs>
				<path id="SVGID_74_" d="M12,21.2c0.3-0.8,1-1.3,1.9-1.3c0.9,0,1.6,0.5,1.9,1.3L20,32.3c0.3,0.9,0.5,1.8,0.5,2.8
					c0,4.4-3.5,7.9-7.8,7.9h-6c-1.1,0-2-0.9-2-2c0-0.3,0-0.5,0.1-0.7L12,21.2z"/>
			</defs>
			<clipPath id="SVGID_75_">
				<use xlink:href="#SVGID_74_"  style="overflow:visible;"/>
			</clipPath>
			<defs>
				<filter id="Adobe_OpacityMaskFilter_9_" filterUnits="userSpaceOnUse" x="-3.1" y="14.6" width="31.4" height="33.8">
					<feColorMatrix  type="matrix" values="1 0 0 0 0  0 1 0 0 0  0 0 1 0 0  0 0 0 1 0"/>
				</filter>
			</defs>
			<mask maskUnits="userSpaceOnUse" x="-3.1" y="14.6" width="31.4" height="33.8" id="SVGID_57_">
				<g class="st40">
					<g>
						<defs>
							<path id="SVGID_76_" d="M12,21.2c0.3-0.8,1-1.3,1.9-1.3c0.9,0,1.6,0.5,1.9,1.3L20,32.3c0.3,0.9,0.5,1.8,0.5,2.8
								c0,4.4-3.5,7.9-7.8,7.9h-6c-1.1,0-2-0.9-2-2c0-0.3,0-0.5,0.1-0.7L12,21.2z"/>
						</defs>
						<clipPath id="SVGID_77_" class="st41">
							<use xlink:href="#SVGID_76_"  style="overflow:visible;"/>
						</clipPath>
						
							<linearGradient id="SVGID_78_" gradientUnits="userSpaceOnUse" x1="-253.0799" y1="-206.7829" x2="-252.9361" y2="-206.7829" gradientTransform="matrix(114.6763 -44.0201 44.0201 114.6763 38127.3086 12607.876)">
							<stop  offset="0" style="stop-color:#000000"/>
							<stop  offset="0.9386" style="stop-color:#000000"/>
							<stop  offset="1" style="stop-color:#8F8F8F"/>
						</linearGradient>
						<polygon class="st42" points="-3.1,22.9 18.5,14.6 28.3,40.1 6.7,48.4 						"/>
					</g>
				</g>
			</mask>
			
				<linearGradient id="SVGID_79_" gradientUnits="userSpaceOnUse" x1="-253.0815" y1="-206.7835" x2="-252.9377" y2="-206.7835" gradientTransform="matrix(114.6763 -44.0201 44.0201 114.6763 38127.5273 12607.876)">
				<stop  offset="0" style="stop-color:#991B24"/>
				<stop  offset="0.9386" style="stop-color:#991B24"/>
				<stop  offset="1" style="stop-color:#480000"/>
			</linearGradient>
			<polygon class="st43" points="-3.1,22.9 18.5,14.6 28.3,40.1 6.7,48.4 			"/>
		</g>
	</g>
</g>
</svg>
